HIERARCHY
ROOT joint_Root
{
	OFFSET 0.0 0.0 0.0
	CHANNELS 6 Xposition Yposition Zposition Zrotation Xrotation Yrotation 
	JOINT Hips
	{
		OFFSET 4.5925 91.4895 -427.239
		CHANNELS 6 Xposition Yposition Zposition Zrotation Xrotation Yrotation 
		JOINT Spine
		{
			OFFSET 15.7357 0.0 0.0
			CHANNELS 6 Xposition Yposition Zposition Zrotation Xrotation Yrotation 
			JOINT Chest
			{
				OFFSET 8.98455 -0.406207 0.0
				CHANNELS 6 Xposition Yposition Zposition Zrotation Xrotation Yrotation 
				JOINT Neck
				{
					OFFSET 16.3773 0.0 0.0
					CHANNELS 6 Xposition Yposition Zposition Zrotation Xrotation Yrotation 
					JOINT Head
					{
						OFFSET 6.45672 0.0 0.0
						CHANNELS 6 Xposition Yposition Zposition Zrotation Xrotation Yrotation 
						End Site
						{
							OFFSET 0.0 0.0 0.0
						}
					}
				}
				JOINT Shoulder_L
				{
					OFFSET 12.9942 -0.242716 4.98039
					CHANNELS 6 Xposition Yposition Zposition Zrotation Xrotation Yrotation 
					JOINT UpperArm_L
					{
						OFFSET 5.34809 0.0 0.0
						CHANNELS 6 Xposition Yposition Zposition Zrotation Xrotation Yrotation 
						JOINT LowerArm_L
						{
							OFFSET 24.3286 1.87007e-05 0.0
							CHANNELS 6 Xposition Yposition Zposition Zrotation Xrotation Yrotation 
							JOINT Hand_L
							{
								OFFSET 22.2916 0.0 0.0
								CHANNELS 6 Xposition Yposition Zposition Zrotation Xrotation Yrotation 
								End Site
								{
									OFFSET 0.0 0.0 0.0
								}
							}
						}
					}
				}
				JOINT Shoulder_R
				{
					OFFSET 12.9945 -0.242716 -4.98039
					CHANNELS 6 Xposition Yposition Zposition Zrotation Xrotation Yrotation 
					JOINT UpperArm_R
					{
						OFFSET -5.34813 0.0 0.0
						CHANNELS 6 Xposition Yposition Zposition Zrotation Xrotation Yrotation 
						JOINT LowerArm_R
						{
							OFFSET -24.3289 0.000322201 0.0
							CHANNELS 6 Xposition Yposition Zposition Zrotation Xrotation Yrotation 
							JOINT Hand_R
							{
								OFFSET -22.2915 -0.000108084 0.0
								CHANNELS 6 Xposition Yposition Zposition Zrotation Xrotation Yrotation 
								End Site
								{
									OFFSET 0.0 0.0 0.0
								}
							}
						}
					}
				}
			}
		}
		JOINT UpperLeg_L
		{
			OFFSET -2.19248 -6.46944 0.0
			CHANNELS 6 Xposition Yposition Zposition Zrotation Xrotation Yrotation 
			JOINT LowerLeg_L
			{
				OFFSET 39.0811 0.0 -1.23785e-05
				CHANNELS 6 Xposition Yposition Zposition Zrotation Xrotation Yrotation 
				JOINT Foot_L
				{
					OFFSET 40.9854 0.0 -1.26872e-05
					CHANNELS 6 Xposition Yposition Zposition Zrotation Xrotation Yrotation 
					JOINT Toes_L
					{
						OFFSET 11.7543 0.0 0.0
						CHANNELS 6 Xposition Yposition Zposition Zrotation Xrotation Yrotation 
						End Site
						{
							OFFSET 0.0 0.0 0.0
						}
					}
				}
			}
		}
		JOINT UpperLeg_R
		{
			OFFSET -2.19251 6.46944 0.0
			CHANNELS 6 Xposition Yposition Zposition Zrotation Xrotation Yrotation 
			JOINT LowerLeg_R
			{
				OFFSET -39.0811 -0.00228153 -0.0401928
				CHANNELS 6 Xposition Yposition Zposition Zrotation Xrotation Yrotation 
				JOINT Foot_R
				{
					OFFSET -40.9854 0.0 0.0
					CHANNELS 6 Xposition Yposition Zposition Zrotation Xrotation Yrotation 
					JOINT Toes_R
					{
						OFFSET -11.7543 0.0 0.0
						CHANNELS 6 Xposition Yposition Zposition Zrotation Xrotation Yrotation 
						End Site
						{
							OFFSET 0.0 0.0 0.0
						}
					}
				}
			}
		}
	}
}
MOTION
Frames:	4
Frame Time:	0.0333333
0.000000 0.000000 0.000000 0.000000 0.000000 -0.000000 -1.581170 81.465800 -4.650610 88.355500 -1.103980 7.699530 15.735700 0.000005 -0.000001 88.656600 80.840100 -88.393000 8.984550 -0.406207 -0.000000 10.550100 -0.420130 0.565764 16.377300 -0.000001 -0.000001 -6.369440 -1.848330 0.836469 6.456720 -0.000001 -0.000000 -8.628800 -1.807540 3.938310 12.994200 -0.242716 4.980390 -90.720400 2.614010 -74.585300 5.348090 -0.000007 -0.000001 -69.846400 -6.248570 -17.080200 24.328600 0.000019 0.000005 5.297730 17.460900 -17.175200 22.291600 -0.000001 0.000005 11.678500 5.196810 2.800480 12.994500 -0.242716 -4.980390 88.946700 6.914460 -81.316600 -5.348130 -0.000001 -0.000004 -62.202300 9.286200 -19.199100 -24.328900 0.000322 -0.000009 -1.575920 -12.102600 -7.466710 -22.291500 -0.000108 -0.000004 10.313100 5.393060 -2.703240 -2.192480 -6.469440 -0.000000 -173.459000 -12.631100 -23.200300 39.081100 -0.000007 -0.000012 -0.396787 0.184021 65.120300 40.985400 -0.000006 -0.000013 2.657110 7.542460 -84.144900 11.754300 -0.000000 0.000003 -0.000358 -0.003015 -16.689200 -2.192510 6.469440 -0.000001 179.692000 14.052400 157.728000 -39.081100 -0.002282 -0.040193 0.091426 -0.042068 64.515400 -40.985400 0.000008 0.000006 8.419490 3.667110 -85.322600 -11.754300 -0.000006 -0.000006 -0.467841 -0.573209 -16.255200
0.000000 0.000000 0.000000 0.000000 0.000000 -0.000000 -1.669640 84.046500 -2.990780 88.676000 0.240745 8.019600 15.735700 0.000005 -0.000001 85.196900 82.193100 -85.005600 8.984550 -0.406207 -0.000000 7.796680 -1.301950 0.470990 16.377300 -0.000001 -0.000001 -4.376440 -1.739070 0.546844 6.456720 -0.000001 -0.000000 -6.705420 -1.255870 3.629700 12.994200 -0.242716 4.980390 -90.311800 1.059210 -73.593000 5.348090 -0.000007 -0.000001 -63.247600 -16.892900 -19.376300 24.328600 0.000019 0.000005 5.030570 20.782200 -13.933700 22.291600 -0.000001 0.000005 15.197800 5.121790 4.601430 12.994500 -0.242716 -4.980390 88.859300 5.920250 -79.072500 -5.348130 -0.000001 -0.000004 -56.165400 -1.166200 -20.269100 -24.328900 0.000322 -0.000009 -0.819861 -10.913900 -4.317050 -22.291500 -0.000108 -0.000004 10.465500 5.356750 -1.587250 -2.192480 -6.469440 -0.000000 -173.621000 -11.708100 -17.916200 39.081100 -0.000007 -0.000012 -0.347497 0.220833 57.565100 40.985400 -0.000006 -0.000013 2.346140 8.196350 -81.639500 11.754300 -0.000000 0.000003 -0.000282 -0.002473 -16.669900 -2.192510 6.469440 -0.000001 178.963000 14.391300 163.176000 -39.081100 -0.002282 -0.040193 0.076822 -0.047428 57.203800 -40.985400 0.000008 0.000006 7.685960 3.467030 -82.659500 -11.754300 -0.000006 -0.000006 -0.588568 -0.724796 -16.535700
0.000000 0.000000 0.000000 0.000000 0.000000 -0.000000 -1.595400 87.199600 -1.352880 89.464900 0.790072 7.796140 15.735700 0.000005 -0.000001 80.856900 83.893300 -80.984600 8.984550 -0.406207 -0.000000 4.292070 -1.933710 -0.182537 16.377300 -0.000001 -0.000001 -1.559140 -1.900630 0.555610 6.456720 -0.000001 -0.000000 -4.815500 -1.394990 3.563140 12.994200 -0.242716 4.980390 -89.576400 -1.332070 -72.363600 5.348090 -0.000007 -0.000001 -59.158200 -33.424600 -25.606600 24.328600 0.000019 0.000005 3.752130 19.851400 -10.928400 22.291600 -0.000001 0.000005 17.302000 4.965950 8.023390 12.994500 -0.242716 -4.980390 89.108000 3.938690 -77.225500 -5.348130 -0.000001 -0.000004 -49.275900 -13.445300 -24.644700 -24.328900 0.000322 -0.000009 -0.620925 -12.835900 -2.789530 -22.291500 -0.000108 -0.000004 13.142500 5.307340 -0.136934 -2.192480 -6.469440 -0.000000 -174.398000 -11.648100 -11.453000 39.081100 -0.000007 -0.000012 -0.270339 0.254833 46.691900 40.985400 -0.000006 -0.000013 1.829940 8.789350 -77.443400 11.754300 -0.000000 0.000003 -0.000155 -0.001492 -16.634200 -2.192510 6.469440 -0.000001 177.866000 14.229800 169.186000 -39.081100 -0.002282 -0.040193 0.053311 -0.046353 47.198600 -40.985400 0.000008 0.000006 6.943330 3.874200 -78.143200 -11.754300 -0.000006 -0.000006 -0.629861 -0.773303 -17.185400
0.000000 0.000000 0.000000 0.000000 0.000000 -0.000000 -1.486770 89.816900 0.144094 90.039200 0.982166 6.751380 15.735700 0.000005 -0.000001 75.100500 85.694500 -75.373000 8.984550 -0.406207 -0.000000 0.551117 -2.196250 -0.534076 16.377300 -0.000001 -0.000001 0.977730 -2.064790 0.443519 6.456720 -0.000001 -0.000000 -3.059760 -1.857940 3.474650 12.994200 -0.242716 4.980390 -88.671200 -3.906580 -71.200000 5.348090 -0.000007 -0.000001 -56.858600 -45.939500 -37.377600 24.328600 0.000019 0.000005 2.823400 16.689100 -9.744340 22.291600 -0.000001 0.000005 18.578800 4.929770 8.776980 12.994500 -0.242716 -4.980390 89.688800 1.222660 -75.711000 -5.348130 -0.000001 -0.000004 -41.593100 -24.838100 -32.695100 -24.328900 0.000322 -0.000009 -0.730317 -15.584200 -2.711790 -22.291500 -0.000108 -0.000004 12.578300 5.318970 -0.467748 -2.192480 -6.469440 -0.000000 -174.930000 -12.793800 -5.646300 39.081100 -0.000007 -0.000012 -0.172096 0.243080 35.298100 40.985400 -0.000006 -0.000013 1.372940 9.983520 -72.820900 11.754300 -0.000000 0.000003 -0.000069 -0.000748 -16.606400 -2.192510 6.469440 -0.000001 176.913000 15.431800 174.043000 -39.081100 -0.002282 -0.040193 0.032813 -0.038620 37.401300 -40.985400 0.000008 0.000006 6.687020 5.722390 -73.025300 -11.754300 -0.000006 -0.000006 -0.838853 -1.016040 -18.317000
